<?xml version="1.0" encoding="UTF-8"?>
<svg id="Layer_1" data-name="Layer 1" xmlns="http://www.w3.org/2000/svg" viewBox="0 0 160 160">
  <defs>
    <style>
      .cls-1 {
        fill: #e1fe4e;
      }
    </style>
  </defs>
  <rect x="-.19" y="-.28" width="161.62" height="161.62"/>
  <path class="cls-1" d="M128.97,40.48c-3.71-7.19-9.03-13.41-15.5-18.18l-15.52,20.76-1.56,12.45c2.65,1.98,4.83,4.54,6.35,7.49,1.55,3,2.42,6.41,2.42,10.01,0,6.04-2.45,11.5-6.4,15.45-3.96,3.95-9.42,6.4-15.45,6.4-1.88,0-3.7-.24-5.44-.68l-6.44,8.63-2.25,12.67.18-.24c4.16,1.06,8.53,1.63,13.02,1.63,14.47,0,27.57-5.86,37.05-15.34,9.48-9.48,15.34-22.58,15.34-37.05,0-8.65-2.1-16.81-5.81-23.99Z"/>
  <path class="cls-1" d="M65.14,95.26c-1.51-2.97-2.36-6.32-2.36-9.88,0-6.03,2.45-11.49,6.4-15.45,3.96-3.95,9.42-6.4,15.46-6.4,1.76,0,3.47.21,5.11.61l6.53-8.73s.08.06.12.09l1.56-12.45-.12.16c-3.94-.94-8.04-1.45-12.27-1.45-14.47,0-27.57,5.87-37.05,15.35s-15.34,22.58-15.34,37.04c0,8.52,2.03,16.57,5.65,23.68,3.6,7.11,8.79,13.28,15.09,18.07l15.28-20.44,2.25-12.67c-2.63-2-4.8-4.57-6.3-7.54Z"/>
</svg>